<mxfile host="app.diagrams.net" modified="2024-02-08T08:33:43.879Z" agent="Mozilla/5.0 (Windows NT 10.0; Win64; x64) AppleWebKit/537.36 (KHTML, like Gecko) Chrome/120.0.0.0 Safari/537.36 OPR/106.0.0.0 (Edition Yx 05)" etag="YV9nrjN8ZSGkeASXpqic" version="23.1.2" type="github">
  <diagram name="Страница — 1" id="l9whoOPhx2CDKmalt9gE">
    <mxGraphModel dx="1380" dy="749" grid="1" gridSize="10" guides="1" tooltips="1" connect="1" arrows="1" fold="1" page="1" pageScale="1" pageWidth="827" pageHeight="1169" math="0" shadow="0">
      <root>
        <mxCell id="0" />
        <mxCell id="1" parent="0" />
        <mxCell id="ELyH83HBDh2ShxrKxOg6-20" value="Жанр" style="shape=table;startSize=30;container=1;collapsible=1;childLayout=tableLayout;fixedRows=1;rowLines=0;fontStyle=1;align=center;resizeLast=1;html=1;" vertex="1" parent="1">
          <mxGeometry x="90" y="70" width="180" height="90" as="geometry" />
        </mxCell>
        <mxCell id="ELyH83HBDh2ShxrKxOg6-21" value="" style="shape=tableRow;horizontal=0;startSize=0;swimlaneHead=0;swimlaneBody=0;fillColor=none;collapsible=0;dropTarget=0;points=[[0,0.5],[1,0.5]];portConstraint=eastwest;top=0;left=0;right=0;bottom=1;" vertex="1" parent="ELyH83HBDh2ShxrKxOg6-20">
          <mxGeometry y="30" width="180" height="30" as="geometry" />
        </mxCell>
        <mxCell id="ELyH83HBDh2ShxrKxOg6-22" value="PK" style="shape=partialRectangle;connectable=0;fillColor=none;top=0;left=0;bottom=0;right=0;fontStyle=1;overflow=hidden;whiteSpace=wrap;html=1;" vertex="1" parent="ELyH83HBDh2ShxrKxOg6-21">
          <mxGeometry width="30" height="30" as="geometry">
            <mxRectangle width="30" height="30" as="alternateBounds" />
          </mxGeometry>
        </mxCell>
        <mxCell id="ELyH83HBDh2ShxrKxOg6-23" value="Жанр_Код" style="shape=partialRectangle;connectable=0;fillColor=none;top=0;left=0;bottom=0;right=0;align=left;spacingLeft=6;fontStyle=5;overflow=hidden;whiteSpace=wrap;html=1;" vertex="1" parent="ELyH83HBDh2ShxrKxOg6-21">
          <mxGeometry x="30" width="150" height="30" as="geometry">
            <mxRectangle width="150" height="30" as="alternateBounds" />
          </mxGeometry>
        </mxCell>
        <mxCell id="ELyH83HBDh2ShxrKxOg6-24" value="" style="shape=tableRow;horizontal=0;startSize=0;swimlaneHead=0;swimlaneBody=0;fillColor=none;collapsible=0;dropTarget=0;points=[[0,0.5],[1,0.5]];portConstraint=eastwest;top=0;left=0;right=0;bottom=0;" vertex="1" parent="ELyH83HBDh2ShxrKxOg6-20">
          <mxGeometry y="60" width="180" height="30" as="geometry" />
        </mxCell>
        <mxCell id="ELyH83HBDh2ShxrKxOg6-25" value="" style="shape=partialRectangle;connectable=0;fillColor=none;top=0;left=0;bottom=0;right=0;editable=1;overflow=hidden;whiteSpace=wrap;html=1;" vertex="1" parent="ELyH83HBDh2ShxrKxOg6-24">
          <mxGeometry width="30" height="30" as="geometry">
            <mxRectangle width="30" height="30" as="alternateBounds" />
          </mxGeometry>
        </mxCell>
        <mxCell id="ELyH83HBDh2ShxrKxOg6-26" value="Название" style="shape=partialRectangle;connectable=0;fillColor=none;top=0;left=0;bottom=0;right=0;align=left;spacingLeft=6;overflow=hidden;whiteSpace=wrap;html=1;" vertex="1" parent="ELyH83HBDh2ShxrKxOg6-24">
          <mxGeometry x="30" width="150" height="30" as="geometry">
            <mxRectangle width="150" height="30" as="alternateBounds" />
          </mxGeometry>
        </mxCell>
        <mxCell id="ELyH83HBDh2ShxrKxOg6-33" value="Исполнитель" style="shape=table;startSize=30;container=1;collapsible=1;childLayout=tableLayout;fixedRows=1;rowLines=0;fontStyle=1;align=center;resizeLast=1;html=1;" vertex="1" parent="1">
          <mxGeometry x="310" y="70" width="180" height="120" as="geometry" />
        </mxCell>
        <mxCell id="ELyH83HBDh2ShxrKxOg6-34" value="" style="shape=tableRow;horizontal=0;startSize=0;swimlaneHead=0;swimlaneBody=0;fillColor=none;collapsible=0;dropTarget=0;points=[[0,0.5],[1,0.5]];portConstraint=eastwest;top=0;left=0;right=0;bottom=1;" vertex="1" parent="ELyH83HBDh2ShxrKxOg6-33">
          <mxGeometry y="30" width="180" height="30" as="geometry" />
        </mxCell>
        <mxCell id="ELyH83HBDh2ShxrKxOg6-35" value="PK" style="shape=partialRectangle;connectable=0;fillColor=none;top=0;left=0;bottom=0;right=0;fontStyle=1;overflow=hidden;whiteSpace=wrap;html=1;" vertex="1" parent="ELyH83HBDh2ShxrKxOg6-34">
          <mxGeometry width="30" height="30" as="geometry">
            <mxRectangle width="30" height="30" as="alternateBounds" />
          </mxGeometry>
        </mxCell>
        <mxCell id="ELyH83HBDh2ShxrKxOg6-36" value="Исп_Код" style="shape=partialRectangle;connectable=0;fillColor=none;top=0;left=0;bottom=0;right=0;align=left;spacingLeft=6;fontStyle=5;overflow=hidden;whiteSpace=wrap;html=1;" vertex="1" parent="ELyH83HBDh2ShxrKxOg6-34">
          <mxGeometry x="30" width="150" height="30" as="geometry">
            <mxRectangle width="150" height="30" as="alternateBounds" />
          </mxGeometry>
        </mxCell>
        <mxCell id="ELyH83HBDh2ShxrKxOg6-37" value="" style="shape=tableRow;horizontal=0;startSize=0;swimlaneHead=0;swimlaneBody=0;fillColor=none;collapsible=0;dropTarget=0;points=[[0,0.5],[1,0.5]];portConstraint=eastwest;top=0;left=0;right=0;bottom=0;" vertex="1" parent="ELyH83HBDh2ShxrKxOg6-33">
          <mxGeometry y="60" width="180" height="30" as="geometry" />
        </mxCell>
        <mxCell id="ELyH83HBDh2ShxrKxOg6-38" value="" style="shape=partialRectangle;connectable=0;fillColor=none;top=0;left=0;bottom=0;right=0;editable=1;overflow=hidden;whiteSpace=wrap;html=1;" vertex="1" parent="ELyH83HBDh2ShxrKxOg6-37">
          <mxGeometry width="30" height="30" as="geometry">
            <mxRectangle width="30" height="30" as="alternateBounds" />
          </mxGeometry>
        </mxCell>
        <mxCell id="ELyH83HBDh2ShxrKxOg6-39" value="Имя(Псевдоним)&lt;br&gt;" style="shape=partialRectangle;connectable=0;fillColor=none;top=0;left=0;bottom=0;right=0;align=left;spacingLeft=6;overflow=hidden;whiteSpace=wrap;html=1;" vertex="1" parent="ELyH83HBDh2ShxrKxOg6-37">
          <mxGeometry x="30" width="150" height="30" as="geometry">
            <mxRectangle width="150" height="30" as="alternateBounds" />
          </mxGeometry>
        </mxCell>
        <mxCell id="ELyH83HBDh2ShxrKxOg6-40" value="" style="shape=tableRow;horizontal=0;startSize=0;swimlaneHead=0;swimlaneBody=0;fillColor=none;collapsible=0;dropTarget=0;points=[[0,0.5],[1,0.5]];portConstraint=eastwest;top=0;left=0;right=0;bottom=0;" vertex="1" parent="ELyH83HBDh2ShxrKxOg6-33">
          <mxGeometry y="90" width="180" height="30" as="geometry" />
        </mxCell>
        <mxCell id="ELyH83HBDh2ShxrKxOg6-41" value="" style="shape=partialRectangle;connectable=0;fillColor=none;top=0;left=0;bottom=0;right=0;editable=1;overflow=hidden;whiteSpace=wrap;html=1;" vertex="1" parent="ELyH83HBDh2ShxrKxOg6-40">
          <mxGeometry width="30" height="30" as="geometry">
            <mxRectangle width="30" height="30" as="alternateBounds" />
          </mxGeometry>
        </mxCell>
        <mxCell id="ELyH83HBDh2ShxrKxOg6-42" value="Жанр" style="shape=partialRectangle;connectable=0;fillColor=none;top=0;left=0;bottom=0;right=0;align=left;spacingLeft=6;overflow=hidden;whiteSpace=wrap;html=1;" vertex="1" parent="ELyH83HBDh2ShxrKxOg6-40">
          <mxGeometry x="30" width="150" height="30" as="geometry">
            <mxRectangle width="150" height="30" as="alternateBounds" />
          </mxGeometry>
        </mxCell>
        <mxCell id="ELyH83HBDh2ShxrKxOg6-46" value="Альбом" style="shape=table;startSize=30;container=1;collapsible=1;childLayout=tableLayout;fixedRows=1;rowLines=0;fontStyle=1;align=center;resizeLast=1;html=1;" vertex="1" parent="1">
          <mxGeometry x="560" y="70" width="180" height="150" as="geometry" />
        </mxCell>
        <mxCell id="ELyH83HBDh2ShxrKxOg6-47" value="" style="shape=tableRow;horizontal=0;startSize=0;swimlaneHead=0;swimlaneBody=0;fillColor=none;collapsible=0;dropTarget=0;points=[[0,0.5],[1,0.5]];portConstraint=eastwest;top=0;left=0;right=0;bottom=1;" vertex="1" parent="ELyH83HBDh2ShxrKxOg6-46">
          <mxGeometry y="30" width="180" height="30" as="geometry" />
        </mxCell>
        <mxCell id="ELyH83HBDh2ShxrKxOg6-48" value="PK" style="shape=partialRectangle;connectable=0;fillColor=none;top=0;left=0;bottom=0;right=0;fontStyle=1;overflow=hidden;whiteSpace=wrap;html=1;" vertex="1" parent="ELyH83HBDh2ShxrKxOg6-47">
          <mxGeometry width="30" height="30" as="geometry">
            <mxRectangle width="30" height="30" as="alternateBounds" />
          </mxGeometry>
        </mxCell>
        <mxCell id="ELyH83HBDh2ShxrKxOg6-49" value="Альбом_Код" style="shape=partialRectangle;connectable=0;fillColor=none;top=0;left=0;bottom=0;right=0;align=left;spacingLeft=6;fontStyle=5;overflow=hidden;whiteSpace=wrap;html=1;" vertex="1" parent="ELyH83HBDh2ShxrKxOg6-47">
          <mxGeometry x="30" width="150" height="30" as="geometry">
            <mxRectangle width="150" height="30" as="alternateBounds" />
          </mxGeometry>
        </mxCell>
        <mxCell id="ELyH83HBDh2ShxrKxOg6-50" value="" style="shape=tableRow;horizontal=0;startSize=0;swimlaneHead=0;swimlaneBody=0;fillColor=none;collapsible=0;dropTarget=0;points=[[0,0.5],[1,0.5]];portConstraint=eastwest;top=0;left=0;right=0;bottom=0;" vertex="1" parent="ELyH83HBDh2ShxrKxOg6-46">
          <mxGeometry y="60" width="180" height="30" as="geometry" />
        </mxCell>
        <mxCell id="ELyH83HBDh2ShxrKxOg6-51" value="" style="shape=partialRectangle;connectable=0;fillColor=none;top=0;left=0;bottom=0;right=0;editable=1;overflow=hidden;whiteSpace=wrap;html=1;" vertex="1" parent="ELyH83HBDh2ShxrKxOg6-50">
          <mxGeometry width="30" height="30" as="geometry">
            <mxRectangle width="30" height="30" as="alternateBounds" />
          </mxGeometry>
        </mxCell>
        <mxCell id="ELyH83HBDh2ShxrKxOg6-52" value="Название" style="shape=partialRectangle;connectable=0;fillColor=none;top=0;left=0;bottom=0;right=0;align=left;spacingLeft=6;overflow=hidden;whiteSpace=wrap;html=1;" vertex="1" parent="ELyH83HBDh2ShxrKxOg6-50">
          <mxGeometry x="30" width="150" height="30" as="geometry">
            <mxRectangle width="150" height="30" as="alternateBounds" />
          </mxGeometry>
        </mxCell>
        <mxCell id="ELyH83HBDh2ShxrKxOg6-53" value="" style="shape=tableRow;horizontal=0;startSize=0;swimlaneHead=0;swimlaneBody=0;fillColor=none;collapsible=0;dropTarget=0;points=[[0,0.5],[1,0.5]];portConstraint=eastwest;top=0;left=0;right=0;bottom=0;" vertex="1" parent="ELyH83HBDh2ShxrKxOg6-46">
          <mxGeometry y="90" width="180" height="30" as="geometry" />
        </mxCell>
        <mxCell id="ELyH83HBDh2ShxrKxOg6-54" value="" style="shape=partialRectangle;connectable=0;fillColor=none;top=0;left=0;bottom=0;right=0;editable=1;overflow=hidden;whiteSpace=wrap;html=1;" vertex="1" parent="ELyH83HBDh2ShxrKxOg6-53">
          <mxGeometry width="30" height="30" as="geometry">
            <mxRectangle width="30" height="30" as="alternateBounds" />
          </mxGeometry>
        </mxCell>
        <mxCell id="ELyH83HBDh2ShxrKxOg6-55" value="Год_выпуска" style="shape=partialRectangle;connectable=0;fillColor=none;top=0;left=0;bottom=0;right=0;align=left;spacingLeft=6;overflow=hidden;whiteSpace=wrap;html=1;" vertex="1" parent="ELyH83HBDh2ShxrKxOg6-53">
          <mxGeometry x="30" width="150" height="30" as="geometry">
            <mxRectangle width="150" height="30" as="alternateBounds" />
          </mxGeometry>
        </mxCell>
        <mxCell id="ELyH83HBDh2ShxrKxOg6-56" value="" style="shape=tableRow;horizontal=0;startSize=0;swimlaneHead=0;swimlaneBody=0;fillColor=none;collapsible=0;dropTarget=0;points=[[0,0.5],[1,0.5]];portConstraint=eastwest;top=0;left=0;right=0;bottom=0;" vertex="1" parent="ELyH83HBDh2ShxrKxOg6-46">
          <mxGeometry y="120" width="180" height="30" as="geometry" />
        </mxCell>
        <mxCell id="ELyH83HBDh2ShxrKxOg6-57" value="" style="shape=partialRectangle;connectable=0;fillColor=none;top=0;left=0;bottom=0;right=0;editable=1;overflow=hidden;whiteSpace=wrap;html=1;" vertex="1" parent="ELyH83HBDh2ShxrKxOg6-56">
          <mxGeometry width="30" height="30" as="geometry">
            <mxRectangle width="30" height="30" as="alternateBounds" />
          </mxGeometry>
        </mxCell>
        <mxCell id="ELyH83HBDh2ShxrKxOg6-58" value="Исполнитель" style="shape=partialRectangle;connectable=0;fillColor=none;top=0;left=0;bottom=0;right=0;align=left;spacingLeft=6;overflow=hidden;whiteSpace=wrap;html=1;" vertex="1" parent="ELyH83HBDh2ShxrKxOg6-56">
          <mxGeometry x="30" width="150" height="30" as="geometry">
            <mxRectangle width="150" height="30" as="alternateBounds" />
          </mxGeometry>
        </mxCell>
        <mxCell id="ELyH83HBDh2ShxrKxOg6-59" value="Трек" style="shape=table;startSize=30;container=1;collapsible=1;childLayout=tableLayout;fixedRows=1;rowLines=0;fontStyle=1;align=center;resizeLast=1;html=1;" vertex="1" parent="1">
          <mxGeometry x="810" y="70" width="180" height="150" as="geometry" />
        </mxCell>
        <mxCell id="ELyH83HBDh2ShxrKxOg6-60" value="" style="shape=tableRow;horizontal=0;startSize=0;swimlaneHead=0;swimlaneBody=0;fillColor=none;collapsible=0;dropTarget=0;points=[[0,0.5],[1,0.5]];portConstraint=eastwest;top=0;left=0;right=0;bottom=1;" vertex="1" parent="ELyH83HBDh2ShxrKxOg6-59">
          <mxGeometry y="30" width="180" height="30" as="geometry" />
        </mxCell>
        <mxCell id="ELyH83HBDh2ShxrKxOg6-61" value="PK" style="shape=partialRectangle;connectable=0;fillColor=none;top=0;left=0;bottom=0;right=0;fontStyle=1;overflow=hidden;whiteSpace=wrap;html=1;" vertex="1" parent="ELyH83HBDh2ShxrKxOg6-60">
          <mxGeometry width="30" height="30" as="geometry">
            <mxRectangle width="30" height="30" as="alternateBounds" />
          </mxGeometry>
        </mxCell>
        <mxCell id="ELyH83HBDh2ShxrKxOg6-62" value="Трек_Код" style="shape=partialRectangle;connectable=0;fillColor=none;top=0;left=0;bottom=0;right=0;align=left;spacingLeft=6;fontStyle=5;overflow=hidden;whiteSpace=wrap;html=1;" vertex="1" parent="ELyH83HBDh2ShxrKxOg6-60">
          <mxGeometry x="30" width="150" height="30" as="geometry">
            <mxRectangle width="150" height="30" as="alternateBounds" />
          </mxGeometry>
        </mxCell>
        <mxCell id="ELyH83HBDh2ShxrKxOg6-63" value="" style="shape=tableRow;horizontal=0;startSize=0;swimlaneHead=0;swimlaneBody=0;fillColor=none;collapsible=0;dropTarget=0;points=[[0,0.5],[1,0.5]];portConstraint=eastwest;top=0;left=0;right=0;bottom=0;" vertex="1" parent="ELyH83HBDh2ShxrKxOg6-59">
          <mxGeometry y="60" width="180" height="30" as="geometry" />
        </mxCell>
        <mxCell id="ELyH83HBDh2ShxrKxOg6-64" value="" style="shape=partialRectangle;connectable=0;fillColor=none;top=0;left=0;bottom=0;right=0;editable=1;overflow=hidden;whiteSpace=wrap;html=1;" vertex="1" parent="ELyH83HBDh2ShxrKxOg6-63">
          <mxGeometry width="30" height="30" as="geometry">
            <mxRectangle width="30" height="30" as="alternateBounds" />
          </mxGeometry>
        </mxCell>
        <mxCell id="ELyH83HBDh2ShxrKxOg6-65" value="Название" style="shape=partialRectangle;connectable=0;fillColor=none;top=0;left=0;bottom=0;right=0;align=left;spacingLeft=6;overflow=hidden;whiteSpace=wrap;html=1;" vertex="1" parent="ELyH83HBDh2ShxrKxOg6-63">
          <mxGeometry x="30" width="150" height="30" as="geometry">
            <mxRectangle width="150" height="30" as="alternateBounds" />
          </mxGeometry>
        </mxCell>
        <mxCell id="ELyH83HBDh2ShxrKxOg6-66" value="" style="shape=tableRow;horizontal=0;startSize=0;swimlaneHead=0;swimlaneBody=0;fillColor=none;collapsible=0;dropTarget=0;points=[[0,0.5],[1,0.5]];portConstraint=eastwest;top=0;left=0;right=0;bottom=0;" vertex="1" parent="ELyH83HBDh2ShxrKxOg6-59">
          <mxGeometry y="90" width="180" height="30" as="geometry" />
        </mxCell>
        <mxCell id="ELyH83HBDh2ShxrKxOg6-67" value="" style="shape=partialRectangle;connectable=0;fillColor=none;top=0;left=0;bottom=0;right=0;editable=1;overflow=hidden;whiteSpace=wrap;html=1;" vertex="1" parent="ELyH83HBDh2ShxrKxOg6-66">
          <mxGeometry width="30" height="30" as="geometry">
            <mxRectangle width="30" height="30" as="alternateBounds" />
          </mxGeometry>
        </mxCell>
        <mxCell id="ELyH83HBDh2ShxrKxOg6-68" value="Длительность" style="shape=partialRectangle;connectable=0;fillColor=none;top=0;left=0;bottom=0;right=0;align=left;spacingLeft=6;overflow=hidden;whiteSpace=wrap;html=1;" vertex="1" parent="ELyH83HBDh2ShxrKxOg6-66">
          <mxGeometry x="30" width="150" height="30" as="geometry">
            <mxRectangle width="150" height="30" as="alternateBounds" />
          </mxGeometry>
        </mxCell>
        <mxCell id="ELyH83HBDh2ShxrKxOg6-69" value="" style="shape=tableRow;horizontal=0;startSize=0;swimlaneHead=0;swimlaneBody=0;fillColor=none;collapsible=0;dropTarget=0;points=[[0,0.5],[1,0.5]];portConstraint=eastwest;top=0;left=0;right=0;bottom=0;" vertex="1" parent="ELyH83HBDh2ShxrKxOg6-59">
          <mxGeometry y="120" width="180" height="30" as="geometry" />
        </mxCell>
        <mxCell id="ELyH83HBDh2ShxrKxOg6-70" value="" style="shape=partialRectangle;connectable=0;fillColor=none;top=0;left=0;bottom=0;right=0;editable=1;overflow=hidden;whiteSpace=wrap;html=1;" vertex="1" parent="ELyH83HBDh2ShxrKxOg6-69">
          <mxGeometry width="30" height="30" as="geometry">
            <mxRectangle width="30" height="30" as="alternateBounds" />
          </mxGeometry>
        </mxCell>
        <mxCell id="ELyH83HBDh2ShxrKxOg6-71" value="Альбом" style="shape=partialRectangle;connectable=0;fillColor=none;top=0;left=0;bottom=0;right=0;align=left;spacingLeft=6;overflow=hidden;whiteSpace=wrap;html=1;" vertex="1" parent="ELyH83HBDh2ShxrKxOg6-69">
          <mxGeometry x="30" width="150" height="30" as="geometry">
            <mxRectangle width="150" height="30" as="alternateBounds" />
          </mxGeometry>
        </mxCell>
        <mxCell id="ELyH83HBDh2ShxrKxOg6-72" style="edgeStyle=orthogonalEdgeStyle;rounded=0;orthogonalLoop=1;jettySize=auto;html=1;exitX=1;exitY=0.5;exitDx=0;exitDy=0;entryX=0;entryY=0.5;entryDx=0;entryDy=0;" edge="1" parent="1" source="ELyH83HBDh2ShxrKxOg6-21" target="ELyH83HBDh2ShxrKxOg6-40">
          <mxGeometry relative="1" as="geometry" />
        </mxCell>
        <mxCell id="ELyH83HBDh2ShxrKxOg6-73" style="edgeStyle=orthogonalEdgeStyle;rounded=0;orthogonalLoop=1;jettySize=auto;html=1;exitX=1;exitY=0.5;exitDx=0;exitDy=0;entryX=0;entryY=0.5;entryDx=0;entryDy=0;" edge="1" parent="1" source="ELyH83HBDh2ShxrKxOg6-34" target="ELyH83HBDh2ShxrKxOg6-56">
          <mxGeometry relative="1" as="geometry" />
        </mxCell>
        <mxCell id="ELyH83HBDh2ShxrKxOg6-74" style="edgeStyle=orthogonalEdgeStyle;rounded=0;orthogonalLoop=1;jettySize=auto;html=1;exitX=1;exitY=0.5;exitDx=0;exitDy=0;entryX=0;entryY=0.5;entryDx=0;entryDy=0;" edge="1" parent="1" source="ELyH83HBDh2ShxrKxOg6-47" target="ELyH83HBDh2ShxrKxOg6-69">
          <mxGeometry relative="1" as="geometry" />
        </mxCell>
      </root>
    </mxGraphModel>
  </diagram>
</mxfile>
